<svg width="1782" height="538" viewBox="0 0 1782 538" fill="none" xmlns="http://www.w3.org/2000/svg">
<mask id="mask0_11015_403" style="mask-type:luminance" maskUnits="userSpaceOnUse" x="490" y="0" width="1292" height="538">
<path d="M1781.07 0H490.401V537.333H1781.07V0Z" fill="white"/>
</mask>
<g mask="url(#mask0_11015_403)">
<path d="M529.484 414.756V122.985H564.818V268.048L695.901 122.985H740.693L626.464 249.568L748.505 414.756H705.36L602.63 275.86L564.818 317.36V414.756H529.484Z" fill="#2F2C25"/>
<path d="M837.68 419.693C817.68 419.693 800.143 415.032 785.076 405.714C770.003 396.397 758.357 383.183 750.138 366.068C741.93 348.943 737.826 328.876 737.826 305.86C737.826 282.568 741.93 262.433 750.138 245.443C758.357 228.459 770.003 215.313 785.076 206.006C800.143 196.688 817.68 192.027 837.68 192.027C857.68 192.027 875.143 196.688 890.076 206.006C905.003 215.313 916.581 228.459 924.805 245.443C933.024 262.433 937.138 282.568 937.138 305.86C937.138 328.876 933.024 348.943 924.805 366.068C916.581 383.183 905.003 396.397 890.076 405.714C875.143 415.032 857.68 419.693 837.68 419.693ZM837.68 386.818C857.68 386.818 873.227 379.631 884.326 365.256C895.419 350.871 900.972 331.068 900.972 305.86C900.972 280.652 895.419 260.86 884.326 246.485C873.227 232.1 857.68 224.902 837.68 224.902C817.68 224.902 802.06 232.1 790.826 246.485C779.602 260.86 773.992 280.652 773.992 305.86C773.992 331.068 779.602 350.871 790.826 365.256C802.06 379.631 817.68 386.818 837.68 386.818Z" fill="#2F2C25"/>
<path d="M1067.8 419.693C1052.73 419.693 1039.31 416.339 1027.53 409.631C1015.75 402.912 1006.71 393.662 1000.41 381.881L999.178 414.756H967.949V122.985H1002.47V227.36C1007.94 218.318 1016.43 210.173 1027.93 202.923C1039.44 195.662 1052.73 192.027 1067.8 192.027C1086.98 192.027 1103.56 196.688 1117.53 206.006C1131.5 215.313 1142.32 228.459 1149.99 245.443C1157.66 262.433 1161.49 282.568 1161.49 305.86C1161.49 329.141 1157.66 349.272 1149.99 366.256C1142.32 383.246 1131.5 396.397 1117.53 405.714C1103.56 415.032 1086.98 419.693 1067.8 419.693ZM1065.76 386.818C1084.1 386.818 1098.62 379.563 1109.3 365.048C1120 350.522 1125.34 330.792 1125.34 305.86C1125.34 280.652 1120 260.86 1109.3 246.485C1098.62 232.1 1084.38 224.902 1066.57 224.902C1053.14 224.902 1041.64 228.126 1032.05 234.568C1022.47 241.001 1015.14 250.245 1010.07 262.298C1005 274.355 1002.47 288.876 1002.47 305.86C1002.47 322.292 1005 336.605 1010.07 348.798C1015.14 360.996 1022.4 370.381 1031.84 376.964C1041.3 383.537 1052.6 386.818 1065.76 386.818Z" fill="#2F2C25"/>
<path d="M1256.84 419.693C1234.37 419.693 1216.49 414.496 1203.2 404.089C1189.92 393.673 1183.28 379.147 1183.28 360.506C1183.28 341.881 1188.76 327.23 1199.72 316.548C1210.68 305.855 1228.07 298.318 1251.91 293.943L1329.16 279.548C1329.16 261.204 1324.84 247.506 1316.22 238.464C1307.59 229.423 1294.65 224.902 1277.39 224.902C1262.31 224.902 1250.4 228.266 1241.64 234.985C1232.87 241.693 1226.84 251.35 1223.55 263.943L1186.97 261.068C1191.08 240.516 1201.01 223.871 1216.76 211.131C1232.52 198.397 1252.73 192.027 1277.39 192.027C1305.33 192.027 1326.7 199.902 1341.49 215.652C1356.28 231.402 1363.68 253.121 1363.68 280.798V370.777C1363.68 375.709 1364.56 379.204 1366.34 381.256C1368.14 383.313 1371.08 384.339 1375.18 384.339H1383.82V414.756C1382.72 415.032 1380.94 415.235 1378.47 415.36C1376.01 415.496 1373.41 415.568 1370.68 415.568C1360.8 415.568 1352.78 414.001 1346.62 410.86C1340.46 407.709 1336.01 402.777 1333.26 396.068C1330.52 389.35 1329.16 380.506 1329.16 369.548L1333.28 370.381C1331.35 379.688 1326.68 388.11 1319.28 395.652C1311.89 403.183 1302.72 409.068 1291.76 413.318C1280.8 417.568 1269.16 419.693 1256.84 419.693ZM1260.12 389.277C1274.64 389.277 1287.04 386.475 1297.3 380.86C1307.58 375.235 1315.45 367.563 1320.93 357.839C1326.41 348.121 1329.16 337.23 1329.16 325.173V309.548L1258.49 322.714C1243.68 325.454 1233.47 329.631 1227.87 335.256C1222.25 340.871 1219.45 348.188 1219.45 357.214C1219.45 367.355 1223.07 375.235 1230.32 380.86C1237.58 386.475 1247.52 389.277 1260.12 389.277Z" fill="#2F2C25"/>
<path d="M1408.07 476.402V445.985H1433.13C1440.8 445.985 1446.48 444.818 1450.17 442.485C1453.88 440.162 1456.69 436.402 1458.61 431.193L1466.42 410.652H1454.51L1374.78 196.964H1412.59L1477.51 378.589L1539.57 196.964H1577.36L1489.03 442.298C1484.91 454.074 1478.75 462.699 1470.53 468.173C1462.3 473.657 1450.93 476.402 1436.42 476.402H1408.07Z" fill="#2F2C25"/>
<path d="M1677.64 419.693C1657.09 419.693 1639.36 415.032 1624.43 405.714C1609.5 396.397 1597.99 383.183 1589.91 366.068C1581.82 348.943 1577.78 328.876 1577.78 305.86C1577.78 282.85 1581.82 262.85 1589.91 245.86C1597.99 228.876 1609.36 215.662 1624.01 206.214C1638.66 196.756 1655.99 192.027 1675.99 192.027C1694.89 192.027 1711.6 196.48 1726.12 205.381C1740.64 214.287 1751.95 227.23 1760.03 244.214C1768.12 261.204 1772.16 281.891 1772.16 306.277V316.548H1613.95C1615.31 339.829 1621.54 357.36 1632.64 369.152C1643.73 380.933 1658.73 386.818 1677.64 386.818C1691.89 386.818 1703.59 383.464 1712.76 376.756C1721.94 370.037 1728.31 361.193 1731.89 350.235L1768.87 353.11C1763.12 372.568 1752.22 388.537 1736.2 401.006C1720.17 413.464 1700.65 419.693 1677.64 419.693ZM1613.95 286.131H1734.34C1732.7 265.037 1726.61 249.558 1716.05 239.693C1705.51 229.834 1692.16 224.902 1675.99 224.902C1659.28 224.902 1645.52 230.042 1634.7 240.318C1623.88 250.584 1616.96 265.855 1613.95 286.131Z" fill="#2F2C25"/>
</g>
<mask id="mask1_11015_403" style="mask-type:luminance" maskUnits="userSpaceOnUse" x="145" y="68" width="242" height="358">
<path d="M145.068 68.625H386.401V425.333H145.068V68.625Z" fill="white"/>
</mask>
<g mask="url(#mask1_11015_403)">
<path fill-rule="evenodd" clip-rule="evenodd" d="M384.208 289.177C337.016 261.646 293.141 236.01 245.818 208.432C245.818 227.719 244.99 243.906 246.427 259.969C246.776 264.115 253.672 268.573 258.474 271.349C296.109 293.234 333.698 315.12 371.766 336.167C381.328 341.505 385.823 347.906 384.255 358.625C384.167 359.245 384.12 359.859 384.255 360.432C392.854 395.818 372.073 412.411 343.917 423.484C339.464 425.25 332.344 424.458 328.109 421.984C270.573 388.807 213.12 355.406 156.104 321.255C151.214 318.385 146.714 310.177 146.672 304.443C146.063 236.849 146.016 169.255 146.672 101.656C146.714 95.4792 151.911 87.7604 156.932 83.6146C179.719 64.6875 201.198 64.4219 227.526 81.9792C273.406 112.687 322.083 139.208 370.151 166.474C381.068 172.693 384.604 179.755 384.385 191.755C383.688 222.995 384.167 254.234 384.167 289.135L384.208 289.177Z" fill="#2F2C25"/>
</g>
<mask id="mask2_11015_403" style="mask-type:luminance" maskUnits="userSpaceOnUse" x="0" y="285" width="290" height="226">
<path d="M0 285.333H289.068V510.667H0V285.333Z" fill="white"/>
</mask>
<g mask="url(#mask2_11015_403)">
<path fill-rule="evenodd" clip-rule="evenodd" d="M97.3385 286.224C97.3385 302.943 98.1249 315.786 97.1197 328.49C96.2031 340.318 101.094 346.495 111.094 352.099C166.01 382.807 220.542 414.266 275.109 445.547C278.953 447.75 282.49 450.578 288.599 454.813C257.078 473.964 227.786 492.094 197.969 509.432C194.609 511.375 187.625 509.833 183.651 507.495C125.672 473.786 67.8281 439.901 10.4166 405.307C5.61452 402.443 1.68744 394.365 1.29682 388.5C-1.23964 342.26 -0.979225 342.172 39.0104 319.005C57.1718 308.547 75.5104 298.443 97.2968 286.224H97.3385Z" fill="#2F2C25"/>
</g>
<path fill-rule="evenodd" clip-rule="evenodd" d="M96.9896 118.427C96.9896 157.698 97.1615 192.464 96.7709 227.229C96.7709 230.141 94.3229 234.333 91.8386 235.745C62.9792 252.339 33.9063 268.443 1.25002 286.797C1.25002 247.839 1.16148 212.714 1.51044 177.552C1.51044 175.214 3.95315 171.948 6.18232 170.667C34.9948 153.854 63.9427 137.401 96.9896 118.427Z" fill="#2F2C25"/>
</svg>
